PathFileType	4	(X/Y/Z)	T1_P1_NoVision_NoMovement_3_0-639.trc
DataRate	CameraRate	NumFrames	NumMarkers	Units	OrigDataRate	OrigDataStartFrame	OrigNumFrames
60	60	5	27	m	60	399	639
Frame#	Time	RHip			RKnee			RAnkle			RBigToe			RSmallToe			RHeel			LHip			LKnee			LAnkle			LBigToe			LSmallToe			LHeel			Neck			Head			Nose			RShoulder			RElbow			RWrist			RThumb			RIndex			RPinky			LShoulder			LElbow			LWrist			LThumb			LIndex			LPinky		
		X1	Y1	Z1	X2	Y2	Z2	X3	Y3	Z3	X4	Y4	Z4	X5	Y5	Z5	X6	Y6	Z6	X7	Y7	Z7	X8	Y8	Z8	X9	Y9	Z9	X10	Y10	Z10	X11	Y11	Z11	X12	Y12	Z12	X13	Y13	Z13	X14	Y14	Z14	X15	Y15	Z15	X16	Y16	Z16	X17	Y17	Z17	X18	Y18	Z18	X19	Y19	Z19	X20	Y20	Z20	X21	Y21	Z21	X22	Y22	Z22	X23	Y23	Z23	X24	Y24	Z24	X25	Y25	Z25	X26	Y26	Z26	X27	Y27	Z27
400	6.666666666666667	-66.86465183497255	3796.2619909767077	-547.9264345087513	280.009519915652	3856.844852770949	-534.7144548179976	650.5556383230838	4182.826329626296	-594.972503538148	704.4909143854783	3952.0772069874783	-491.6565723308578	723.2161346990407	4027.675711407953	-597.5398226866986	685.8906488844151	4210.605776569851	-570.855657404547	-109.97678949321926	3899.965141007399	-356.22857411281865	237.32614817912818	3990.759088735777	-357.148269650054	590.7871102137541	4194.902977814759	-381.8126986039439	685.6496721655194	4150.500948855324	-337.8410006941769	645.3853452243476	4159.18628928027	-298.56141545319025	626.8720498273412	4250.822777332103	-418.85386315625743	-656.3965141689922	3657.2828334769642	-464.8831372844869	-898.9176828581341	3537.40551690135	-436.32425471495014	-739.4231055802819	3558.808044881591	-403.76004018870844	-557.2896509934346	3634.8388673932527	-623.5877133357565	-300.0305527559391	3773.960466155136	-711.3380579248616	-39.56318528283471	3728.607918190519	-620.0397792852267	75.50294009513337	3793.5130886569764	-573.8376587172522	91.92884327130405	3798.446589137475	-577.1708583072013	85.08698638527952	3787.4316283620674	-595.8457173287609	-604.142086552114	3746.3724495917877	-334.81696115177607	-386.7065458038036	3983.0946837445213	-339.2660434481312	-119.45359493592689	3979.812666652143	-300.76331178565215	16.96077236566009	3934.6608530253934	-326.3433732044169	35.9891945605679	3944.601774822281	-294.4002489240143	9.674079744906976	4009.3351106229525	-257.0504383136533
401	6.683333333333334	-66.77359840185036	3791.933427328844	-546.8263311696646	282.34211996018587	3860.671740202005	-536.6397852777222	650.1857685249392	4181.3296634036205	-594.0339169737649	706.6676963375173	3957.6685724684016	-495.63879015452187	721.6308104557447	4020.7294482417274	-595.6374541559823	685.7085703436768	4207.3868370505825	-568.5208879300038	-108.97925955746024	3900.2445568341836	-356.11678378871903	238.95689501537836	3991.309328635843	-356.93153643629455	589.2748246418736	4189.9251016032185	-378.5924092503863	685.4996197433359	4145.932199237661	-334.4483213149266	645.4888172925536	4154.432835367865	-294.49083614412757	626.4196813608748	4248.269872437409	-417.3212178916593	-655.657721409155	3659.6766556047	-465.9907962960051	-901.0130525368893	3540.597573370756	-437.186055783174	-738.21836110039	3554.8239046359076	-402.89443817185537	-557.292861544482	3634.883902055229	-623.5901267824534	-298.71691505675057	3770.2752382108283	-708.028326243644	-39.54754019118277	3728.3913026199048	-620.6483405851411	73.5328689577276	3792.503476785934	-573.9199724639009	90.27533532197062	3798.24095008924	-577.2306126890295	84.74366605607892	3787.1250639263385	-597.1692039488607	-604.4039905491876	3748.5681953351022	-336.3664137750181	-386.5745951645637	3982.9034669212474	-339.1281398669201	-120.42706675201319	3971.2490326323605	-299.71098308364736	16.982748743363068	3935.0268437692043	-327.9526492468343	36.226411454479475	3949.897013247578	-298.2543434001258	7.939224211527073	4012.1474942406358	-260.3595024414122
402	6.7	-66.75733507499004	3788.9463794325293	-546.0639096279117	283.7790097090202	3865.847327311861	-539.8818900439328	649.2896831149723	4180.0571660480355	-593.4092112934654	707.8078586041744	3958.8036832451676	-496.7148198912125	720.0958152098635	4019.239969429689	-594.7964533552125	685.4261996832934	4202.750546257712	-565.1507146858991	-109.76992013713071	3899.8927766970137	-356.1943251139548	239.70031583654907	3991.832889948507	-356.85387888931126	587.9519004281696	4188.818719829179	-377.88062084564496	685.0980573701504	4141.878042170732	-331.59649748778565	646.4490653912194	4155.7842320934105	-292.9081892942534	625.4784499873094	4244.3544545651885	-414.65516852766723	-655.7727278528708	3664.43367318889	-469.51997861999627	-900.750353061721	3536.556994111545	-436.12260055422666	-737.1827438052878	3549.8250544177504	-401.7327473568821	-557.2748671334031	3634.6604881079343	-623.3904633345148	-296.8488596421517	3766.8408054943066	-704.794374919279	-39.55515067173254	3728.4359479671366	-620.7583516868241	72.05712364853551	3791.741616634609	-574.0043882491373	89.02866700481238	3798.2108861087304	-577.2959915705699	83.97888414018588	3787.0512005501523	-597.7812681909188	-605.0157967759864	3753.7153088519794	-340.0381983184694	-386.58360631820216	3982.714848126696	-339.0267748817534	-121.44364140165516	3961.0572646431956	-298.6987127613919	15.706587451802797	3934.189599399931	-328.1895173058678	35.77852969470008	3951.347914462513	-300.0580928683022	6.157362224595373	4010.3658328839774	-261.2960505429573
403	6.716666666666667	-66.8029969099498	3787.836859200309	-545.7890977247674	283.9141437377643	3870.008715939311	-542.8967381139632	647.0816890387889	4177.296945018072	-592.1037725384672	705.8261140369078	3954.632522007137	-494.4772676938314	719.2586773803264	4024.552482642518	-595.5102901765871	684.141599962944	4197.968548303403	-561.9732621425653	-111.65877374088997	3899.195623175424	-356.3919013781506	239.6217263664217	3992.3276417655934	-356.9087890699585	586.9237180022843	4191.840706591929	-380.0052836919593	684.8992243594358	4140.843373775082	-330.92263408049416	646.7993976937303	4160.585078678545	-293.44574818372695	624.1434676366982	4241.6601794093085	-412.86368990686583	-656.4643877781492	3670.227139639092	-474.1699956802549	-899.0550740732994	3528.8693140009673	-433.76483528155643	-736.4433542139359	3546.233103665081	-400.8343350504427	-557.2465490158698	3634.251948642126	-623.0378886504081	-295.49143220935866	3767.1159805087545	-704.7083245757849	-39.564126703117104	3728.7391821629476	-620.7865129574376	71.47717006697971	3791.42122643695	-574.0486795030705	88.53314581700756	3798.5424108196316	-577.3960733535833	83.17293938323733	3787.1657240262616	-597.7752835992609	-605.7351578475858	3759.7288829370914	-344.33614045457114	-387.1018854758159	3982.276358452442	-338.8586812929811	-121.97288626502069	3955.6243239698306	-298.09988496496476	13.793745498958355	3932.783465383412	-327.61395918961654	34.42071865336694	3948.5845366062913	-299.84521673134697	4.900390969376727	4006.3870372046295	-260.6853620897221
404	6.733333333333333	-66.87035627250332	3788.5967536259786	-545.9983210461467	282.8300193192121	3870.8180656049935	-543.8830213631844	644.4330934886669	4172.739905500627	-589.5192959570214	701.5471687681805	3947.964118703887	-490.52647401919734	718.9452612514609	4031.028234810622	-596.6660900351884	681.5068133816659	4192.718410218352	-559.0453287204278	-113.30392713128701	3898.642001071831	-356.56792028937684	238.92735794540613	3994.7498387579153	-357.45488233991455	586.5594029947547	4194.469363323355	-381.81051647391723	685.7449725332194	4144.802735144978	-333.4521324007193	645.8775805100171	4163.881098977438	-294.4785014462051	623.4956149411173	4240.994138639428	-412.40037896442533	-657.0837415612217	3674.5252305456174	-477.67464071009124	-897.8556136664208	3524.749607146145	-431.97529500153877	-736.3304049415942	3546.4607299673153	-400.78213545086516	-557.263881672834	3634.2834470675434	-623.056764243711	-295.0303060625506	3770.200971357695	-707.1248626593958	-39.56863391385838	3729.3126245429085	-620.9086474365831	71.46238149776092	3791.4031650391	-574.0688866385456	88.5073278884527	3799.060208321034	-577.5251706779917	82.79103271405371	3787.3596140672953	-597.2925471786322	-606.0414286747167	3762.244281076857	-346.126372735877	-388.37974711114316	3981.3749165185754	-338.52368910524393	-122.22387207002605	3957.047763394458	-297.6540206025759	12.310162292083835	3931.693455721645	-327.0156908114752	32.43139502897682	3941.976218931795	-297.01043420702234	4.573852522482846	4002.2827347783495	-258.7254311835717
